<svg width="131" height="36" viewBox="0 0 131 36" fill="none" xmlns="http://www.w3.org/2000/svg">
<path d="M17.7474 0C14.2373 0 10.806 1.03186 7.88749 2.96508C4.96894 4.89831 2.69421 7.64608 1.35095 10.8609C0.00768956 14.0758 -0.343768 17.6133 0.34102 21.0261C1.02581 24.439 2.71608 27.5739 5.1981 30.0344C7.68012 32.495 10.8424 34.1706 14.2851 34.8495C17.7277 35.5283 21.2961 35.1799 24.5391 33.8483C27.782 32.5167 30.5537 30.2616 32.5038 27.3683C34.454 24.4751 35.4948 21.0735 35.4948 17.5938C35.4948 12.9276 33.625 8.45257 30.2967 5.1531C26.9684 1.85362 22.4543 0 17.7474 0V0ZM25.8917 25.3727C25.8161 25.497 25.7164 25.6052 25.5984 25.691C25.4803 25.7768 25.3462 25.8384 25.2039 25.8724C25.0615 25.9064 24.9138 25.912 24.7693 25.8888C24.6248 25.8657 24.4863 25.8144 24.362 25.7377C20.1978 23.2103 14.9571 22.6486 8.78165 24.0387C8.64117 24.072 8.49543 24.0772 8.35289 24.0542C8.21036 24.0311 8.07385 23.9802 7.95131 23.9045C7.82877 23.8287 7.72262 23.7296 7.63904 23.6128C7.55545 23.4961 7.49609 23.364 7.4644 23.2243C7.43072 23.0842 7.42527 22.9388 7.44835 22.7966C7.47143 22.6543 7.52259 22.518 7.5989 22.3954C7.67521 22.2728 7.77517 22.1663 7.89306 22.0821C8.01095 21.9978 8.14445 21.9375 8.28591 21.9045C15.0421 20.3739 20.8493 21.0339 25.5234 23.8702C25.7728 24.0214 25.9516 24.2644 26.0206 24.546C26.0897 24.8276 26.0433 25.1249 25.8917 25.3727V25.3727ZM28.0588 20.5846C27.8608 20.8864 27.5535 21.1013 27.2003 21.1849C26.8471 21.2685 26.4749 21.2145 26.1608 21.0339C20.7753 18.0557 14.4177 17.3184 8.4842 18.9839C8.29957 19.0859 8.09424 19.1457 7.88327 19.1588C7.6723 19.1719 7.46105 19.138 7.26499 19.0597C7.06894 18.9814 6.89306 18.8605 6.75026 18.706C6.60746 18.5515 6.50135 18.3673 6.43971 18.1668C6.37808 17.9664 6.36249 17.7548 6.39408 17.5476C6.42567 17.3404 6.50364 17.1428 6.62227 16.9694C6.7409 16.7959 6.89719 16.651 7.07968 16.5452C7.26216 16.4395 7.46621 16.3755 7.67686 16.3581C10.9887 15.413 14.4577 15.1336 17.88 15.5363C21.3023 15.9389 24.6089 17.0156 27.6055 18.703C27.91 18.8993 28.1268 19.2039 28.2111 19.5541C28.2955 19.9042 28.2409 20.2731 28.0588 20.5846V20.5846ZM28.2429 15.5999C22.5773 12.23 13.1016 11.9211 7.63437 13.5639C7.21364 13.6905 6.75941 13.6463 6.37159 13.4409C5.98378 13.2355 5.69416 12.8858 5.56643 12.4687C5.43871 12.0516 5.48336 11.6013 5.69054 11.2168C5.89773 10.8324 6.25049 10.5453 6.67122 10.4187C12.9458 8.53712 23.3563 8.90219 29.9426 12.7636C30.2812 13.0038 30.5162 13.3616 30.6008 13.7657C30.6854 14.1699 30.6134 14.5908 30.3992 14.9448C30.1849 15.2987 29.8442 15.5598 29.4446 15.6759C29.0451 15.7921 28.616 15.755 28.2429 15.5718V15.5999Z" fill="#1DD75F"/>
<path d="M52.2369 14.3664C48.8375 13.552 48.2285 12.9622 48.2285 11.8109C48.2285 10.6595 49.2908 9.92932 50.8772 9.92932C52.5782 9.99255 54.2109 10.6094 55.5229 11.6845C55.5492 11.698 55.5783 11.7051 55.6079 11.7051C55.6375 11.7051 55.6667 11.698 55.6929 11.6845C55.7487 11.6738 55.7988 11.644 55.8345 11.6002L57.5059 9.26938C57.5392 9.22733 57.5573 9.17541 57.5573 9.12194C57.5573 9.06848 57.5392 9.01656 57.5059 8.97451C55.663 7.47908 53.3433 6.68269 50.9621 6.7279C47.2937 6.7279 44.73 8.91834 44.73 12.0355C44.73 15.3914 46.9396 16.5849 50.7638 17.4976C54.0216 18.2418 54.574 18.9017 54.574 19.9829C54.574 21.0641 53.455 21.9768 51.7412 21.9768C49.7152 21.9629 47.7744 21.1671 46.3305 19.7582C46.2754 19.74 46.2157 19.74 46.1606 19.7582C46.102 19.7722 46.0482 19.8012 46.0048 19.8425L44.1068 22.0189C44.0669 22.0606 44.0447 22.1159 44.0447 22.1733C44.0447 22.2308 44.0669 22.2861 44.1068 22.3278C46.1686 24.1587 48.8458 25.1602 51.6137 25.1361C55.5654 25.1361 58.1291 22.9877 58.1291 19.674C58.0725 16.9079 56.3728 15.3633 52.2369 14.3664Z" fill="#14142B"/>
<path d="M67.0238 11.0383C66.2057 11.0333 65.3973 11.2142 64.6607 11.5671C63.9241 11.9201 63.2789 12.4356 62.7747 13.0743V11.5298C62.771 11.4726 62.7456 11.419 62.7035 11.3799C62.6614 11.3408 62.6058 11.319 62.548 11.3191H59.4745C59.4167 11.319 59.3611 11.3408 59.319 11.3799C59.2769 11.419 59.2514 11.4726 59.2478 11.5298V28.6602C59.2478 28.7197 59.2717 28.7769 59.3142 28.819C59.3567 28.8612 59.4144 28.8848 59.4745 28.8848H62.5197C62.5798 28.8848 62.6375 28.8612 62.68 28.819C62.7225 28.7769 62.7463 28.7197 62.7463 28.6602V23.2823C63.2673 23.8942 63.9185 24.3841 64.6532 24.7167C65.388 25.0493 66.1879 25.2164 66.9955 25.206C70.1824 25.206 73.4118 22.7769 73.4118 18.1151C73.4118 13.4534 70.2107 11.0383 67.0238 11.0383ZM69.8566 18.059C69.9096 18.5611 69.857 19.0686 69.7021 19.5496C69.5471 20.0305 69.2933 20.4744 68.9565 20.8531C68.6197 21.2318 68.2074 21.5371 67.7455 21.7499C67.2836 21.9626 66.7823 22.078 66.2731 22.0888C65.7626 22.0732 65.2605 21.9552 64.7972 21.7419C64.3339 21.5286 63.9189 21.2245 63.5774 20.8479C63.2359 20.4713 62.9749 20.0301 62.8102 19.5507C62.6454 19.0714 62.5803 18.5639 62.6189 18.059C62.5823 17.5551 62.6489 17.0492 62.8146 16.5715C62.9802 16.0938 63.2416 15.6542 63.5829 15.2792C63.9242 14.9041 64.3384 14.6013 64.8007 14.3889C65.263 14.1765 65.7639 14.0589 66.2731 14.0432C66.7885 14.0519 67.2964 14.167 67.7645 14.3812C68.2325 14.5953 68.6504 14.9037 68.9915 15.2868C69.3326 15.6699 69.5895 16.1193 69.7458 16.6062C69.9021 17.0932 69.9543 17.6071 69.8991 18.1151L69.8566 18.059Z" fill="#14142B"/>
<path d="M81.7115 11.0381C80.2962 11.0632 78.9199 11.5032 77.7565 12.3027C76.5931 13.1022 75.6945 14.2253 75.1742 15.5304C74.6539 16.8356 74.5351 18.2642 74.8328 19.6362C75.1306 21.0081 75.8315 22.262 76.8471 23.2395C77.8628 24.2171 79.1477 24.8745 80.5399 25.129C81.932 25.3835 83.369 25.2236 84.6696 24.6694C85.9702 24.1153 87.0761 23.1917 87.8478 22.0152C88.6195 20.8387 89.0225 19.462 89.006 18.0588C88.9931 17.1227 88.794 16.1983 88.4202 15.3386C88.0465 14.4788 87.5053 13.7006 86.8278 13.0485C86.1502 12.3964 85.3495 11.8831 84.4716 11.5382C83.5937 11.1932 82.6558 11.0233 81.7115 11.0381V11.0381ZM81.7115 22.1729C81.1883 22.1661 80.6718 22.0545 80.1932 21.8447C79.7146 21.635 79.2837 21.3315 78.9265 20.9524C78.5692 20.5733 78.293 20.1265 78.1144 19.6389C77.9358 19.1513 77.8586 18.6329 77.8873 18.1149C77.8544 17.6041 77.9274 17.092 78.1018 16.6102C78.2762 16.1283 78.5482 15.687 78.9012 15.3134C79.2542 14.9398 79.6806 14.6418 80.1542 14.4378C80.6278 14.2338 81.1385 14.1281 81.6549 14.1272C82.1799 14.1304 82.6988 14.2388 83.1805 14.4459C83.6621 14.6529 84.0966 14.9543 84.4578 15.3321C84.819 15.7098 85.0994 16.156 85.2822 16.6439C85.465 17.1318 85.5465 17.6512 85.5216 18.1711C85.5547 18.6862 85.4805 19.2025 85.3037 19.6879C85.1269 20.1733 84.8512 20.6175 84.4939 20.9928C84.1365 21.3682 83.7051 21.6666 83.2264 21.8696C82.7478 22.0726 82.2321 22.1759 81.7115 22.1729V22.1729Z" fill="#14142B"/>
<path d="M97.774 11.3192H94.4172V7.92119C94.4173 7.86397 94.3954 7.80885 94.3559 7.7671C94.3164 7.72535 94.2623 7.70011 94.2047 7.69653H91.1595C91.0994 7.69653 91.0417 7.7202 90.9992 7.76234C90.9567 7.80447 90.9329 7.86161 90.9329 7.92119V11.3192H89.4315C89.4036 11.3192 89.3759 11.3246 89.3502 11.3352C89.3244 11.3458 89.301 11.3613 89.2813 11.3809C89.2615 11.4004 89.2459 11.4237 89.2352 11.4492C89.2245 11.4748 89.219 11.5022 89.219 11.5298V14.1275C89.2189 14.1847 89.2408 14.2398 89.2803 14.2816C89.3198 14.3233 89.3739 14.3485 89.4315 14.3521H90.8479V21.0639C90.8479 23.7738 92.2643 25.1499 94.8988 25.1499C95.8901 25.1777 96.87 24.9348 97.7316 24.4478C97.7662 24.4315 97.7954 24.4056 97.8155 24.3732C97.8356 24.3408 97.8458 24.3033 97.8449 24.2653V21.794C97.8454 21.7558 97.8367 21.718 97.8195 21.6837C97.8022 21.6495 97.7769 21.6199 97.7457 21.5974C97.7118 21.5762 97.6725 21.565 97.6324 21.565C97.5923 21.565 97.553 21.5762 97.5191 21.5974C96.966 21.8752 96.3545 22.0195 95.7344 22.0187C94.7571 22.0187 94.318 21.5834 94.318 20.6145V14.3521H97.6749C97.735 14.3521 97.7926 14.3284 97.8351 14.2863C97.8776 14.2442 97.9015 14.187 97.9015 14.1275V11.5298C97.9032 11.4862 97.892 11.4431 97.8694 11.4057C97.8468 11.3683 97.8136 11.3382 97.774 11.3192V11.3192Z" fill="#14142B"/>
<path d="M109.459 11.3335V10.9122C109.459 9.67658 109.926 9.12897 110.989 9.12897C111.579 9.13574 112.164 9.24504 112.717 9.45192C112.748 9.46587 112.782 9.47309 112.816 9.47309C112.85 9.47309 112.884 9.46587 112.915 9.45192C112.943 9.43012 112.965 9.40228 112.979 9.3706C112.994 9.33891 113.001 9.30426 113 9.26938V6.69982C113.002 6.65062 112.989 6.60198 112.96 6.56138C112.932 6.52079 112.891 6.49049 112.844 6.47516C112.017 6.25951 111.163 6.1649 110.309 6.19433C107.476 6.19433 106.06 7.76696 106.06 10.7297V11.3756H104.643C104.587 11.3756 104.533 11.3978 104.493 11.4373C104.453 11.4768 104.431 11.5303 104.431 11.5862V14.1979C104.431 14.2551 104.453 14.3102 104.492 14.352C104.532 14.3937 104.586 14.419 104.643 14.4225H106.06V24.785C106.06 24.8409 106.082 24.8945 106.122 24.934C106.162 24.9735 106.216 24.9957 106.272 24.9957H109.261C109.318 24.9958 109.374 24.974 109.416 24.9349C109.458 24.8957 109.484 24.8422 109.487 24.785V14.3523H112.32L116.683 24.7008C116.187 25.796 115.691 26.0066 115.025 26.0066C114.438 25.9908 113.864 25.8317 113.354 25.5433C113.325 25.5296 113.294 25.5225 113.262 25.5225C113.23 25.5225 113.199 25.5296 113.17 25.5433C113.142 25.5514 113.116 25.5657 113.093 25.5852C113.071 25.6046 113.054 25.6287 113.043 25.6556L112.094 27.8882C112.073 27.9389 112.071 27.9955 112.089 28.0472C112.108 28.0989 112.144 28.1422 112.193 28.169C113.183 28.7319 114.309 29.0182 115.45 28.9974C117.688 28.9974 118.935 27.9584 120.04 25.1641L125.323 11.6283C125.34 11.5959 125.349 11.5597 125.349 11.523C125.349 11.4863 125.34 11.4501 125.323 11.4177C125.301 11.3904 125.273 11.3686 125.241 11.354C125.209 11.3394 125.174 11.3324 125.139 11.3335H121.881C121.836 11.3363 121.793 11.3507 121.756 11.3754C121.718 11.4 121.688 11.434 121.668 11.4739L118.425 20.6709L114.926 11.4739C114.909 11.432 114.88 11.3962 114.842 11.3712C114.804 11.3461 114.759 11.333 114.714 11.3335H109.459Z" fill="#14142B"/>
<path d="M102.689 11.3192H99.6435C99.5183 11.3192 99.4169 11.4198 99.4169 11.5439V24.7146C99.4169 24.8387 99.5183 24.9393 99.6435 24.9393H102.689C102.814 24.9393 102.915 24.8387 102.915 24.7146V11.5439C102.915 11.4198 102.814 11.3192 102.689 11.3192Z" fill="#14142B"/>
<path d="M101.18 5.94865C100.759 5.94596 100.346 6.0673 99.9949 6.29728C99.6434 6.52726 99.3688 6.85553 99.2057 7.24047C99.0427 7.6254 98.9986 8.04967 99.0791 8.45946C99.1596 8.86926 99.361 9.24613 99.6578 9.5423C99.9547 9.83847 100.334 10.0406 100.746 10.123C101.159 10.2055 101.587 10.1645 101.977 10.0054C102.366 9.84625 102.699 9.57608 102.933 9.22914C103.168 8.8822 103.293 8.47411 103.293 8.05662C103.294 7.78044 103.241 7.50664 103.136 7.25096C103.03 6.99529 102.875 6.7628 102.679 6.56688C102.482 6.37096 102.249 6.21547 101.992 6.10937C101.734 6.00327 101.459 5.94865 101.18 5.94865V5.94865Z" fill="#14142B"/>
<path d="M127.858 15.5455C127.577 15.5473 127.298 15.4938 127.037 15.3879C126.777 15.282 126.54 15.1259 126.341 14.9286C126.142 14.7314 125.985 14.4969 125.878 14.2388C125.771 13.9807 125.717 13.7042 125.719 13.4252C125.719 12.8592 125.946 12.3163 126.35 11.9161C126.753 11.5158 127.301 11.2909 127.872 11.2909C128.153 11.2891 128.432 11.3426 128.693 11.4485C128.953 11.5544 129.19 11.7105 129.389 11.9078C129.588 12.105 129.745 12.3395 129.852 12.5976C129.959 12.8557 130.013 13.1322 130.011 13.4112C130.011 13.9772 129.784 14.5201 129.38 14.9203C128.977 15.3206 128.429 15.5455 127.858 15.5455V15.5455ZM127.858 11.5016C127.473 11.4988 127.096 11.6096 126.775 11.8199C126.453 12.0302 126.202 12.3305 126.054 12.6826C125.905 13.0346 125.865 13.4226 125.94 13.797C126.014 14.1715 126.199 14.5155 126.472 14.7854C126.744 15.0553 127.091 15.2388 127.469 15.3125C127.846 15.3863 128.238 15.347 128.593 15.1997C128.948 15.0524 129.251 14.8036 129.463 14.4852C129.675 14.1667 129.787 13.7928 129.784 13.4112C129.786 13.1611 129.738 12.9131 129.643 12.6815C129.547 12.4499 129.407 12.2392 129.229 12.0617C129.051 11.8842 128.84 11.7433 128.607 11.6472C128.374 11.551 128.124 11.5016 127.872 11.5016H127.858ZM128.339 13.6358L128.934 14.4783H128.424L127.886 13.706H127.419V14.4783H126.98V12.2457H127.985C128.509 12.2457 128.864 12.5125 128.864 12.9478C128.867 13.1021 128.818 13.2531 128.726 13.3775C128.634 13.5019 128.503 13.5927 128.354 13.6358H128.339ZM127.971 12.6249H127.419V13.3269H127.971C128.254 13.3269 128.424 13.2006 128.424 12.9759C128.424 12.7512 128.269 12.6249 127.985 12.6249H127.971Z" fill="#14142B"/>
</svg>
