<svg width="201" height="37" viewBox="0 0 201 37" fill="none" xmlns="http://www.w3.org/2000/svg">
<path d="M16.8594 11.5476V17.047V19.2451V24.7444H21.4355V19.2451V17.047V11.5476H16.8594Z" fill="#FAB908"/>
<path d="M3.13153 19.1764C4.39517 19.1764 5.41955 18.1609 5.41955 16.9082C5.41955 15.6555 4.39517 14.64 3.13153 14.64C1.86789 14.64 0.843506 15.6555 0.843506 16.9082C0.843506 18.1609 1.86789 19.1764 3.13153 19.1764Z" fill="#0066D9"/>
<path d="M3.13153 21.651C4.39517 21.651 5.41955 20.6355 5.41955 19.3828C5.41955 18.1301 4.39517 17.1146 3.13153 17.1146C1.86789 17.1146 0.843506 18.1301 0.843506 19.3828C0.843506 20.6355 1.86789 21.651 3.13153 21.651Z" fill="#0066D9"/>
<path d="M5.41955 16.9086H0.843506V19.383H5.41955V16.9086Z" fill="#0066D9"/>
<path d="M35.1636 21.651C36.4273 21.651 37.4516 20.6355 37.4516 19.3828C37.4516 18.1301 36.4273 17.1146 35.1636 17.1146C33.9 17.1146 32.8756 18.1301 32.8756 19.3828C32.8756 20.6355 33.9 21.651 35.1636 21.651Z" fill="#4285F4"/>
<path d="M35.1636 19.1764C36.4273 19.1764 37.4516 18.1609 37.4516 16.9082C37.4516 15.6555 36.4273 14.64 35.1636 14.64C33.9 14.64 32.8756 15.6555 32.8756 16.9082C32.8756 18.1609 33.9 19.1764 35.1636 19.1764Z" fill="#4285F4"/>
<path d="M32.8756 19.3832H37.4516V16.9088H32.8756V19.3832Z" fill="#4285F4"/>
<path d="M11.0354 26.6C12.299 26.6 13.3234 25.5845 13.3234 24.3318C13.3234 23.0791 12.299 22.0636 11.0354 22.0636C9.77176 22.0636 8.74739 23.0791 8.74739 24.3318C8.74739 25.5845 9.77176 26.6 11.0354 26.6Z" fill="#EA4335"/>
<path d="M11.0354 29.0746C12.299 29.0746 13.3234 28.0591 13.3234 26.8064C13.3234 25.5537 12.299 24.5381 11.0354 24.5381C9.77176 24.5381 8.74739 25.5537 8.74739 26.8064C8.74739 28.0591 9.77176 29.0746 11.0354 29.0746Z" fill="#EA4335"/>
<path d="M13.3234 24.3322H8.74739V26.8066H13.3234V24.3322Z" fill="#EA4335"/>
<path d="M11.0354 11.7534C12.299 11.7534 13.3234 10.7379 13.3234 9.48524C13.3234 8.23255 12.299 7.21704 11.0354 7.21704C9.77176 7.21704 8.74739 8.23255 8.74739 9.48524C8.74739 10.7379 9.77176 11.7534 11.0354 11.7534Z" fill="#EA4335"/>
<path d="M11.0354 19.7949C12.299 19.7949 13.3234 18.7794 13.3234 17.5267C13.3234 16.274 12.299 15.2585 11.0354 15.2585C9.77176 15.2585 8.74739 16.274 8.74739 17.5267C8.74739 18.7794 9.77176 19.7949 11.0354 19.7949Z" fill="#EA4335"/>
<path d="M13.3234 9.48499H8.74739V17.5784H13.3234V9.48499Z" fill="#EA4335"/>
<path d="M27.2597 14.228C28.5233 14.228 29.5477 13.2125 29.5477 11.9598C29.5477 10.7071 28.5233 9.69159 27.2597 9.69159C25.9961 9.69159 24.9717 10.7071 24.9717 11.9598C24.9717 13.2125 25.9961 14.228 27.2597 14.228Z" fill="#34A853"/>
<path d="M27.2597 11.7534C28.5233 11.7534 29.5477 10.7379 29.5477 9.48524C29.5477 8.23255 28.5233 7.21704 27.2597 7.21704C25.9961 7.21704 24.9717 8.23255 24.9717 9.48524C24.9717 10.7379 25.9961 11.7534 27.2597 11.7534Z" fill="#34A853"/>
<path d="M24.9714 11.9595H29.5475V9.48512H24.9714V11.9595Z" fill="#34A853"/>
<path d="M19.1474 7.01095C20.4111 7.01095 21.4355 5.99545 21.4355 4.74275C21.4355 3.49006 20.4111 2.47455 19.1474 2.47455C17.8838 2.47455 16.8594 3.49006 16.8594 4.74275C16.8594 5.99545 17.8838 7.01095 19.1474 7.01095Z" fill="#FAB908"/>
<path d="M19.1474 4.5364C20.4111 4.5364 21.4355 3.52089 21.4355 2.2682C21.4355 1.01551 20.4111 0 19.1474 0C17.8838 0 16.8594 1.01551 16.8594 2.2682C16.8594 3.52089 17.8838 4.5364 19.1474 4.5364Z" fill="#FAB908"/>
<path d="M16.8595 4.74255L21.4356 4.74255V2.26814L16.8595 2.26814V4.74255Z" fill="#FAB908"/>
<path d="M19.1474 36.291C20.4111 36.291 21.4355 35.2755 21.4355 34.0228C21.4355 32.7701 20.4111 31.7546 19.1474 31.7546C17.8838 31.7546 16.8594 32.7701 16.8594 34.0228C16.8594 35.2755 17.8838 36.291 19.1474 36.291Z" fill="#FAB908"/>
<path d="M19.1474 33.817C20.4111 33.817 21.4355 32.8015 21.4355 31.5488C21.4355 30.2961 20.4111 29.2806 19.1474 29.2806C17.8838 29.2806 16.8594 30.2961 16.8594 31.5488C16.8594 32.8015 17.8838 33.817 19.1474 33.817Z" fill="#FAB908"/>
<path d="M16.8595 34.0231H21.4356V31.5487H16.8595V34.0231Z" fill="#FAB908"/>
<path d="M27.2597 29.0746C28.5233 29.0746 29.5477 28.0591 29.5477 26.8064C29.5477 25.5537 28.5233 24.5381 27.2597 24.5381C25.9961 24.5381 24.9717 25.5537 24.9717 26.8064C24.9717 28.0591 25.9961 29.0746 27.2597 29.0746Z" fill="#34A853"/>
<path d="M27.2597 21.0325C28.5233 21.0325 29.5477 20.017 29.5477 18.7643C29.5477 17.5116 28.5233 16.4961 27.2597 16.4961C25.9961 16.4961 24.9717 17.5116 24.9717 18.7643C24.9717 20.017 25.9961 21.0325 27.2597 21.0325Z" fill="#34A853"/>
<path d="M24.9714 26.8062H29.5475V18.7643H24.9714V26.8062Z" fill="#34A853"/>
<path d="M19.1474 13.8155C20.4111 13.8155 21.4355 12.7999 21.4355 11.5473C21.4355 10.2946 20.4111 9.27905 19.1474 9.27905C17.8838 9.27905 16.8594 10.2946 16.8594 11.5473C16.8594 12.7999 17.8838 13.8155 19.1474 13.8155Z" fill="#FAB908"/>
<path d="M19.1474 27.0125C20.4111 27.0125 21.4355 25.997 21.4355 24.7443C21.4355 23.4916 20.4111 22.4761 19.1474 22.4761C17.8838 22.4761 16.8594 23.4916 16.8594 24.7443C16.8594 25.997 17.8838 27.0125 19.1474 27.0125Z" fill="#FAB908"/>
<path fill-rule="evenodd" clip-rule="evenodd" d="M123.84 23.9189H121.935V9.22058H126.988C128.244 9.22058 129.331 9.63457 130.249 10.4625C131.167 11.2905 131.626 12.334 131.626 13.5931C131.626 14.8522 131.167 15.8957 130.249 16.7237C129.331 17.5517 128.244 17.9657 126.988 17.9657H123.84V23.9189ZM123.84 16.1592H127.029C127.83 16.1592 128.472 15.8923 128.955 15.3586C129.438 14.8248 129.68 14.2363 129.68 13.5931C129.68 12.9499 129.438 12.3614 128.955 11.8277C128.472 11.2939 127.83 11.0271 127.029 11.0271H123.84V16.1592ZM133.206 15.0712C134.186 14.0447 135.435 13.5315 136.954 13.5315C138.473 13.5315 139.722 14.0413 140.702 15.0609C141.682 16.0805 142.172 17.3566 142.172 18.8894C142.172 20.4222 141.682 21.6984 140.702 22.718C139.722 23.7376 138.473 24.2473 136.954 24.2473C135.435 24.2473 134.186 23.7376 133.206 22.718C132.226 21.6984 131.736 20.4222 131.736 18.8894C131.736 17.3566 132.226 16.0839 133.206 15.0712ZM134.614 21.5376C135.277 22.1945 136.057 22.523 136.954 22.523C137.851 22.523 138.628 22.1911 139.284 21.5273C139.939 20.8636 140.267 19.9843 140.267 18.8894C140.267 17.7946 139.939 16.9153 139.284 16.2515C138.628 15.5878 137.851 15.2559 136.954 15.2559C136.057 15.2559 135.28 15.5878 134.624 16.2515C133.969 16.9153 133.641 17.7946 133.641 18.8894C133.641 19.9843 133.965 20.867 134.614 21.5376ZM147.914 24.2473C146.603 24.2473 145.471 23.7341 144.518 22.7077C143.566 21.6813 143.089 20.4085 143.089 18.8894C143.089 17.3703 143.566 16.0976 144.518 15.0712C145.471 14.0447 146.603 13.5315 147.914 13.5315C148.687 13.5315 149.381 13.6958 149.995 14.0242C150.61 14.3527 151.069 14.7632 151.372 15.2559H151.455L151.372 13.86V9.22058H153.278V23.9189H151.455V22.523H151.372C151.069 23.0156 150.61 23.4262 149.995 23.7547C149.381 24.0831 148.687 24.2473 147.914 24.2473ZM148.225 22.523C149.122 22.523 149.885 22.1945 150.513 21.5376C151.141 20.8807 151.455 19.998 151.455 18.8894C151.455 17.7809 151.141 16.8982 150.513 16.2413C149.885 15.5844 149.122 15.2559 148.225 15.2559C147.341 15.2559 146.582 15.5878 145.947 16.2515C145.312 16.9153 144.994 17.7946 144.994 18.8894C144.994 19.9843 145.312 20.8636 145.947 21.5273C146.582 22.1911 147.341 22.523 148.225 22.523ZM159.889 24.2473C158.371 24.2473 157.121 23.7376 156.141 22.718C155.161 21.6984 154.671 20.4222 154.671 18.8894C154.671 17.3566 155.161 16.0805 156.141 15.0609C157.121 14.0413 158.371 13.5315 159.889 13.5315C161.021 13.5315 161.96 13.8052 162.705 14.3527C163.451 14.9001 163.996 15.5912 164.341 16.426L162.602 17.1445C162.077 15.8854 161.132 15.2559 159.765 15.2559C158.923 15.2559 158.181 15.5981 157.539 16.2823C156.897 16.9666 156.576 17.8356 156.576 18.8894C156.576 19.9432 156.897 20.8123 157.539 21.4965C158.181 22.1808 158.923 22.523 159.765 22.523C161.187 22.523 162.167 21.8934 162.705 20.6344L164.403 21.3528C164.058 22.174 163.503 22.8617 162.736 23.4159C161.97 23.9702 161.021 24.2473 159.889 24.2473ZM168.923 24.2473C167.847 24.2473 166.946 23.9394 166.221 23.3236C165.496 22.7077 165.134 21.8934 165.134 20.8807C165.134 19.7858 165.562 18.9271 166.418 18.3044C167.274 17.6817 168.33 17.3703 169.586 17.3703C170.704 17.3703 171.622 17.5756 172.34 17.9862V17.6988C172.34 16.9598 172.085 16.3679 171.574 15.9231C171.063 15.4783 170.435 15.2559 169.69 15.2559C169.137 15.2559 168.637 15.3859 168.188 15.646C167.74 15.906 167.433 16.2618 167.267 16.7134L165.527 15.9744C165.762 15.3722 166.225 14.8146 166.915 14.3014C167.605 13.7881 168.516 13.5315 169.648 13.5315C170.946 13.5315 172.023 13.9079 172.879 14.6606C173.735 15.4133 174.163 16.4739 174.163 17.8425V23.9189H172.34V22.523H172.257C171.498 23.6726 170.387 24.2473 168.923 24.2473ZM169.234 22.523C170.021 22.523 170.735 22.2321 171.377 21.6505C172.019 21.0689 172.34 20.3812 172.34 19.5874C171.802 19.1495 170.994 18.9305 169.917 18.9305C168.992 18.9305 168.295 19.1289 167.826 19.5258C167.357 19.9227 167.122 20.388 167.122 20.9217C167.122 21.4144 167.336 21.8045 167.764 22.0919C168.192 22.3793 168.682 22.523 169.234 22.523ZM179.739 24.2473C178.607 24.2473 177.671 23.9736 176.933 23.4262C176.194 22.8788 175.652 22.1945 175.307 21.3734L177.005 20.6754C177.544 21.9345 178.462 22.564 179.759 22.564C180.353 22.564 180.84 22.434 181.219 22.174C181.599 21.914 181.789 21.5718 181.789 21.1476C181.789 20.4906 181.326 20.0459 180.401 19.8132L178.351 19.3205C177.702 19.1563 177.088 18.845 176.508 18.3865C175.929 17.928 175.639 17.3088 175.639 16.5287C175.639 15.6391 176.035 14.9172 176.829 14.3629C177.623 13.8087 178.565 13.5315 179.656 13.5315C180.553 13.5315 181.354 13.7334 182.058 14.1371C182.762 14.5409 183.266 15.1191 183.57 15.8718L181.913 16.5492C181.54 15.6596 180.767 15.2149 179.594 15.2149C179.028 15.2149 178.551 15.3312 178.165 15.5638C177.778 15.7965 177.585 16.1113 177.585 16.5081C177.585 17.0829 178.034 17.473 178.931 17.6783L180.94 18.1504C181.892 18.3694 182.596 18.7457 183.052 19.2795C183.508 19.8132 183.735 20.4154 183.735 21.086C183.735 21.9892 183.363 22.7419 182.617 23.3441C181.872 23.9463 180.912 24.2473 179.739 24.2473ZM189.436 24.0831C188.373 24.0831 187.562 23.8026 187.003 23.2415C186.443 22.6803 186.164 21.8866 186.164 20.8602V15.5844H184.383V13.86H186.164V10.7807H188.069V13.86H190.554V15.5844H188.069V20.7165C188.069 21.8113 188.525 22.3587 189.436 22.3587C189.781 22.3587 190.071 22.304 190.305 22.1945L190.968 23.8162C190.554 23.9942 190.043 24.0831 189.436 24.0831ZM196.109 24.2473C194.977 24.2473 194.042 23.9736 193.304 23.4262C192.565 22.8788 192.023 22.1945 191.678 21.3734L193.376 20.6754C193.914 21.9345 194.832 22.564 196.13 22.564C196.724 22.564 197.21 22.434 197.59 22.174C197.97 21.914 198.159 21.5718 198.159 21.1476C198.159 20.4906 197.697 20.0459 196.772 19.8132L194.722 19.3205C194.073 19.1563 193.459 18.845 192.879 18.3865C192.299 17.928 192.009 17.3088 192.009 16.5287C192.009 15.6391 192.406 14.9172 193.2 14.3629C193.994 13.8087 194.936 13.5315 196.027 13.5315C196.924 13.5315 197.725 13.7334 198.429 14.1371C199.133 14.5409 199.637 15.1191 199.94 15.8718L198.284 16.5492C197.911 15.6596 197.138 15.2149 195.964 15.2149C195.398 15.2149 194.922 15.3312 194.536 15.5638C194.149 15.7965 193.956 16.1113 193.956 16.5081C193.956 17.0829 194.404 17.473 195.302 17.6783L197.31 18.1504C198.263 18.3694 198.967 18.7457 199.423 19.2795C199.878 19.8132 200.106 20.4154 200.106 21.086C200.106 21.9892 199.733 22.7419 198.988 23.3441C198.242 23.9463 197.283 24.2473 196.109 24.2473Z" fill="#14142B"/>
<path d="M49.5859 15.8208C49.5859 11.1699 53.5172 7.401 58.2087 7.401C60.7972 7.401 62.6415 8.41138 64.0328 9.72648L62.3826 11.3463C61.3958 10.4161 60.053 9.69441 58.2087 9.69441C54.7952 9.69441 52.1259 12.4208 52.1259 15.8048C52.1259 19.1888 54.7952 21.9152 58.2087 21.9152C60.4251 21.9152 61.687 21.0331 62.4959 20.2312C63.1592 19.5737 63.596 18.6275 63.7577 17.3444H58.2087V15.051H66.0226C66.1035 15.468 66.1521 15.9491 66.1521 16.4944C66.1521 18.2265 65.6829 20.3595 64.146 21.8671C62.6415 23.4067 60.7325 24.2246 58.2087 24.2246C53.5172 24.2246 49.5859 20.4558 49.5859 15.8208ZM72.3805 13.4954C75.4058 13.4954 77.8648 15.7727 77.8648 18.9161C77.8648 22.0435 75.4058 24.3369 72.3805 24.3369C69.3553 24.3369 66.8962 22.0435 66.8962 18.9161C66.8962 15.7727 69.3553 13.4954 72.3805 13.4954ZM72.3805 22.1878C74.0307 22.1878 75.4705 20.8407 75.4705 18.9001C75.4705 16.9435 74.0307 15.6124 72.3805 15.6124C70.7142 15.6124 69.2906 16.9435 69.2906 18.9001C69.2906 20.8407 70.7304 22.1878 72.3805 22.1878ZM84.3522 13.4954C87.3774 13.4954 89.8365 15.7727 89.8365 18.9161C89.8365 22.0435 87.3774 24.3369 84.3522 24.3369C81.3269 24.3369 78.8679 22.0435 78.8679 18.9161C78.8679 15.7727 81.3269 13.4954 84.3522 13.4954ZM84.3522 22.1878C86.0023 22.1878 87.4421 20.8407 87.4421 18.9001C87.4421 16.9435 86.0185 15.6124 84.3522 15.6124C82.6858 15.6124 81.2622 16.9435 81.2622 18.9001C81.2622 20.8407 82.702 22.1878 84.3522 22.1878ZM99.0417 13.6718H101.339V23.4067C101.339 27.4162 98.9608 29.052 96.1458 29.052C93.4927 29.052 91.891 27.2879 91.2925 25.8445L93.3794 24.9784C93.7515 25.8605 94.6575 26.903 96.1296 26.903C97.9254 26.903 99.0417 25.7964 99.0417 23.7275V22.9416H98.9608C98.4269 23.5992 97.3915 24.1765 96.0811 24.1765C93.3471 24.1765 90.8395 21.8029 90.8395 18.7718C90.8395 15.7086 93.3471 13.335 96.0811 13.335C97.3915 13.335 98.4269 13.9123 98.9608 14.5539H99.0417V13.6718ZM96.2914 22.0435C97.9254 22.0435 99.2196 20.6803 99.2034 18.7718C99.2034 16.8633 97.9254 15.468 96.2914 15.468C94.6413 15.468 93.25 16.8633 93.25 18.7718C93.25 20.6643 94.6413 22.0435 96.2914 22.0435ZM102.973 23.968V8.04251H105.367V23.968H102.973ZM111.952 22.1878C113.181 22.1878 114.022 21.5944 114.653 20.6963L116.514 21.9312C115.899 22.8133 114.459 24.3369 111.952 24.3369C108.845 24.3369 106.532 21.9473 106.532 18.9161C106.532 15.6925 108.878 13.4954 111.693 13.4954C114.524 13.4954 115.915 15.7246 116.368 16.9435L116.611 17.5529L109.298 20.552C109.865 21.6265 110.722 22.1878 111.952 22.1878ZM111.774 15.5803C110.544 15.5803 108.845 16.6548 108.91 18.7397L113.796 16.735C113.537 16.0454 112.728 15.5803 111.774 15.5803Z" fill="#14142B"/>
</svg>
