<svg width="184" height="36" viewBox="0 0 184 36" fill="none" xmlns="http://www.w3.org/2000/svg">
<path d="M35.1835 31.1524C34.6749 32.3519 33.8694 33.4048 32.8413 34.2137C32.0899 34.7992 31.2349 35.2405 30.3202 35.5151C28.8997 35.8552 27.4396 36.0044 25.979 35.9588H9.88236C8.42668 36.0054 6.97134 35.8562 5.55611 35.5151C4.63035 35.2453 3.76469 34.8036 3.00511 34.2137C2.0072 33.4285 1.21843 32.413 0.707723 31.2559C0.157106 29.5978 -0.0756448 27.8523 0.0214892 26.1093V26.1093V10.1077C-0.0578648 8.39831 0.179786 6.68901 0.72264 5.06465C1.22494 3.89844 2.00877 2.87254 3.00511 2.07728C3.76023 1.48898 4.62068 1.04742 5.54119 0.775856C6.95642 0.434798 8.41176 0.285549 9.86745 0.332187H26.0238C27.4843 0.286565 28.9445 0.435791 30.3649 0.775856C31.2639 1.05546 32.1034 1.49661 32.8413 2.07728C33.8393 2.86248 34.628 3.87798 35.1387 5.03508C35.6802 6.66973 35.9128 8.38937 35.825 10.1077V26.1093C35.9236 27.8151 35.7061 29.5243 35.1835 31.1524V31.1524Z" fill="url(#paint0_linear)"/>
<path d="M20.5493 20.77C20.1968 20.4485 19.7828 20.2004 19.3318 20.0403C18.8808 19.8803 18.402 19.8116 17.9237 19.8383C17.4504 19.8156 16.9772 19.8862 16.5316 20.0462C16.086 20.2061 15.6769 20.4521 15.328 20.77C15.0504 21.0423 14.881 21.4045 14.8506 21.7904C14.7564 22.6852 14.7564 23.5873 14.8506 24.482C14.9401 25.5764 15.1191 27.0257 15.3578 28.5046C15.4515 29.1884 15.591 29.8653 15.7755 30.5307C15.9411 30.934 16.2342 31.2731 16.6108 31.4971C16.9874 31.7211 17.4272 31.8179 17.8641 31.773C18.303 31.8188 18.745 31.7226 19.1242 31.4987C19.5034 31.2748 19.7992 30.9352 19.9675 30.5307C20.152 29.8653 20.2915 29.1884 20.3852 28.5046C20.609 27.0257 20.788 25.5468 20.8775 24.482C20.9717 23.5873 20.9717 22.6852 20.8775 21.7904C20.8886 21.4232 20.7728 21.0631 20.5493 20.77V20.77ZM15.0296 15.7566C15.0296 16.3415 15.2046 16.9134 15.5324 17.3998C15.8603 17.8862 16.3263 18.2653 16.8715 18.4892C17.4166 18.7131 18.0165 18.7716 18.5953 18.6575C19.1741 18.5434 19.7057 18.2617 20.123 17.848C20.5402 17.4344 20.8244 16.9073 20.9395 16.3336C21.0547 15.7598 20.9956 15.1651 20.7697 14.6247C20.5439 14.0842 20.1615 13.6222 19.6708 13.2972C19.1802 12.9722 18.6033 12.7988 18.0132 12.7988C17.2219 12.7988 16.463 13.1104 15.9035 13.6651C15.344 14.2198 15.0296 14.9721 15.0296 15.7566ZM17.9237 4.26553C14.9501 4.27908 12.0767 5.33312 9.81043 7.24178C7.54414 9.15043 6.03049 11.7911 5.53641 14.6981C5.04233 17.6051 5.59956 20.5916 7.10983 23.1311C8.62009 25.6706 10.9864 27.5998 13.7914 28.5786C13.8196 28.586 13.8493 28.5865 13.8777 28.58C13.9062 28.5735 13.9326 28.5601 13.9546 28.5412C13.9767 28.5222 13.9938 28.4982 14.0043 28.4712C14.0149 28.4442 14.0186 28.4151 14.0152 28.3863C13.9406 27.9574 13.8809 27.5286 13.8212 27.1145C13.8153 27.0399 13.7884 26.9685 13.7436 26.9084C13.6988 26.8482 13.6378 26.8018 13.5676 26.7743C11.2569 25.7574 9.36952 23.9831 8.22272 21.7495C7.07592 19.5158 6.73953 16.9589 7.27007 14.5084C7.80062 12.0579 9.16576 9.86305 11.1362 8.29264C13.1065 6.72223 15.5621 5.87194 18.0903 5.88464C20.6185 5.89735 23.0652 6.77226 25.0195 8.36238C26.9737 9.95251 28.3163 12.161 28.8218 14.6167C29.3273 17.0724 28.9648 19.6258 27.7952 21.8478C26.6256 24.0698 24.7202 25.8251 22.3992 26.8187C22.329 26.8462 22.268 26.8926 22.2232 26.9527C22.1784 27.0129 22.1515 27.0843 22.1456 27.1588C22.1456 27.5729 22.0262 28.0018 21.9516 28.4307C21.9482 28.4594 21.9519 28.4886 21.9625 28.5156C21.973 28.5426 21.9901 28.5666 22.0122 28.5855C22.0342 28.6045 22.0606 28.6178 22.0891 28.6243C22.1175 28.6309 22.1472 28.6304 22.1754 28.6229C25.0233 27.6645 27.4324 25.7294 28.9687 23.1662C30.5049 20.6029 31.0672 17.5801 30.5544 14.6422C30.0416 11.7043 28.4873 9.04458 26.1716 7.14211C23.8559 5.23963 20.9309 4.21952 17.9237 4.26553V4.26553ZM17.7 10.0036C19.0923 9.94937 20.4681 10.3184 21.6429 11.0613C22.8176 11.8042 23.7352 12.8854 24.2725 14.1599C24.8098 15.4344 24.9412 16.8414 24.649 18.192C24.3569 19.5427 23.6551 20.7725 22.6379 21.7165C22.5842 21.7713 22.5421 21.8361 22.5139 21.9072C22.4857 21.9783 22.4721 22.0542 22.4738 22.1306C22.5059 22.623 22.5059 23.117 22.4738 23.6095C22.4748 23.6401 22.4838 23.67 22.4999 23.6962C22.516 23.7224 22.5387 23.744 22.5657 23.7589C22.5928 23.7738 22.6233 23.7815 22.6542 23.7812C22.6852 23.7809 22.7155 23.7727 22.7423 23.7574C24.2374 22.7487 25.3671 21.2915 25.9655 19.5996C26.5639 17.9078 26.5996 16.0703 26.0673 14.3568C25.5349 12.6434 24.4626 11.1442 23.0077 10.0793C21.5528 9.01433 19.7919 8.43969 17.9834 8.43969C16.1749 8.43969 14.414 9.01433 12.9591 10.0793C11.5042 11.1442 10.4319 12.6434 9.89955 14.3568C9.36722 16.0703 9.40288 17.9078 10.0013 19.5996C10.5997 21.2915 11.7294 22.7487 13.2245 23.7574C13.2501 23.774 13.2799 23.7832 13.3105 23.7839C13.3411 23.7847 13.3713 23.7769 13.3977 23.7615C13.424 23.7461 13.4456 23.7238 13.4598 23.6969C13.474 23.67 13.4804 23.6397 13.4781 23.6095C13.4781 23.1067 13.4781 22.6482 13.4781 22.1306C13.4858 22.0536 13.475 21.9759 13.4464 21.9039C13.4179 21.8319 13.3725 21.7677 13.314 21.7165C12.3336 20.796 11.6496 19.6088 11.348 18.304C11.0464 16.9992 11.1407 15.6351 11.619 14.3833C12.0973 13.1315 12.9383 12.0478 14.0362 11.2685C15.1341 10.4893 16.4399 10.0492 17.7895 10.0036H17.7Z" fill="white"/>
<path d="M53.1896 19.7222H47.655L46.2676 23.6117H43.9702L49.2512 9.1925H51.6978L56.949 23.6117H54.5621L53.1896 19.7222ZM48.2219 17.9919H52.6227L50.4596 11.6623L48.2219 17.9919Z" fill="#14142B"/>
<path d="M68.2578 18.3627C68.2578 21.631 66.4975 23.7311 63.7824 23.7311C63.1063 23.7661 62.434 23.6112 61.8428 23.2841C61.2516 22.9571 60.7656 22.4712 60.4407 21.8825V21.8825V27.103H58.2776V13.0978H60.381V14.8429C60.7261 14.2618 61.2227 13.7835 61.8185 13.4583C62.4144 13.133 63.0876 12.9727 63.7674 12.9943C66.4825 12.9943 68.2578 15.0352 68.2578 18.3627ZM66.0201 18.3627C66.0201 16.2331 64.9161 14.8281 63.2155 14.8281C61.5148 14.8281 60.4407 16.307 60.4407 18.3627C60.4407 20.4183 61.5595 21.8972 63.2155 21.8972C64.8714 21.8972 66.0201 20.5071 66.0201 18.3627Z" fill="#14142B"/>
<path d="M79.9383 18.363C79.9383 21.6313 78.178 23.7314 75.4629 23.7314C74.7893 23.7635 74.1201 23.6073 73.5319 23.2804C72.9436 22.9535 72.46 22.4692 72.1361 21.8827V21.8827V27.1032H69.9432V13.0981H72.0616V14.8432C72.4055 14.261 72.9017 13.7819 73.4979 13.4564C74.094 13.131 74.7678 12.9714 75.448 12.9946C78.1631 12.9946 79.9383 15.0355 79.9383 18.363ZM77.7006 18.363C77.7006 16.2334 76.5967 14.8284 74.896 14.8284C73.1953 14.8284 72.1212 16.3073 72.1212 18.363C72.1212 20.4186 73.2401 21.8975 74.896 21.8975C76.5519 21.8975 77.7006 20.5074 77.7006 18.363Z" fill="#14142B"/>
<path d="M81.6982 9.19263H83.8762V23.6119H81.6982V9.19263Z" fill="#14142B"/>
<path d="M95.2141 20.5211C94.9769 21.5158 94.3831 22.3913 93.5434 22.9844C92.7036 23.5774 91.675 23.8478 90.6491 23.7451C87.5611 23.7451 85.6516 21.6894 85.6516 18.4063C85.6516 15.1231 87.576 12.9639 90.5596 12.9639C93.5432 12.9639 95.3483 15.0344 95.3483 18.1548V18.8943H87.8893V19.0274C87.8572 19.4138 87.9084 19.8025 88.0393 20.1678C88.1703 20.5331 88.3781 20.8666 88.6489 21.1463C88.9197 21.426 89.2474 21.6454 89.6103 21.79C89.9731 21.9346 90.3628 22.0012 90.7535 21.9852C91.2679 22.0344 91.7844 21.9169 92.2256 21.6502C92.6668 21.3835 93.0087 20.9821 93.2001 20.5063L95.2141 20.5211ZM87.8594 17.3858H93.1554C93.1761 17.0384 93.1239 16.6905 93.002 16.3641C92.8801 16.0377 92.6911 15.74 92.4471 15.4898C92.2031 15.2395 91.9094 15.0422 91.5845 14.9104C91.2596 14.7785 90.9106 14.715 90.5596 14.7238C90.2052 14.7199 89.8535 14.7859 89.5251 14.9181C89.1967 15.0503 88.8981 15.246 88.6468 15.4938C88.3954 15.7416 88.1964 16.0365 88.0612 16.3613C87.926 16.6862 87.8574 17.0344 87.8594 17.3858V17.3858Z" fill="#14142B"/>
<path d="M106.94 9.19343C107.576 9.16179 108.211 9.26242 108.806 9.48885C109.4 9.71529 109.94 10.0625 110.391 10.5082C110.842 10.9539 111.194 11.4883 111.425 12.0768C111.655 12.6654 111.758 13.2953 111.728 13.9259C111.756 14.5637 111.649 15.2003 111.414 15.7947C111.179 16.389 110.821 16.9279 110.362 17.3765C109.904 17.8252 109.356 18.1737 108.754 18.3996C108.151 18.6254 107.508 18.7237 106.865 18.6879H103.747V23.6127H101.465V9.19343H106.94ZM103.747 16.8097H106.328C106.73 16.8634 107.138 16.8277 107.524 16.7054C107.91 16.583 108.264 16.377 108.559 16.1023C108.855 15.8276 109.085 15.4911 109.233 15.1172C109.382 14.7433 109.444 14.3414 109.416 13.9407C109.444 13.5419 109.382 13.1419 109.235 12.7698C109.087 12.3976 108.858 12.0628 108.564 11.7894C108.27 11.5161 107.918 11.3112 107.533 11.1896C107.149 11.068 106.743 11.0327 106.343 11.0864H103.747V16.8097Z" fill="#14142B"/>
<path d="M112.519 18.3619C112.519 15.0492 114.488 12.9639 117.561 12.9639C120.634 12.9639 122.589 15.0492 122.589 18.3619C122.589 21.6746 120.649 23.7451 117.561 23.7451C114.473 23.7451 112.519 21.6746 112.519 18.3619ZM120.366 18.3619C120.366 16.0844 119.322 14.7534 117.561 14.7534C115.801 14.7534 114.742 16.0992 114.742 18.3619C114.742 20.6246 115.786 21.9704 117.561 21.9704C119.336 21.9704 120.366 20.6394 120.366 18.3619Z" fill="#14142B"/>
<path d="M124.125 18.3618C124.125 15.1082 125.931 12.9934 128.601 12.9934C129.275 12.9595 129.945 13.115 130.533 13.442C131.122 13.7691 131.605 14.2544 131.928 14.842V14.842V9.19263H134.106V23.6119H131.987V21.8224C131.663 22.4257 131.173 22.9253 130.573 23.2631C129.974 23.6008 129.29 23.7628 128.601 23.7302C125.931 23.7302 124.125 21.6006 124.125 18.3618ZM126.348 18.3618C126.348 20.521 127.452 21.8963 129.153 21.8963C130.854 21.8963 131.943 20.4914 131.943 18.3618C131.943 16.2322 130.824 14.8272 129.153 14.8272C127.482 14.8272 126.348 16.2174 126.348 18.3618V18.3618Z" fill="#14142B"/>
<path d="M143.385 16.7218C143.289 16.1456 142.978 15.6263 142.514 15.2672C142.049 14.9082 141.466 14.7358 140.879 14.7844C139.208 14.7844 138.089 16.1746 138.089 18.3634C138.089 20.5521 139.208 21.9423 140.893 21.9423C141.471 21.9993 142.049 21.8373 142.512 21.4888C142.974 21.1404 143.286 20.6313 143.385 20.0641H145.473C145.342 21.1502 144.788 22.1426 143.93 22.8304C143.072 23.5181 141.977 23.8468 140.879 23.7465C137.895 23.7465 135.881 21.6909 135.881 18.3634C135.881 15.0359 137.85 12.9654 140.864 12.9654C141.972 12.8741 143.073 13.2157 143.932 13.9174C144.79 14.6191 145.338 15.6254 145.458 16.7218H143.385Z" fill="#14142B"/>
<path d="M146.816 20.6258C146.816 18.7919 148.233 17.668 150.754 17.5349L153.663 17.3722V16.5145C153.663 15.3461 152.887 14.6806 151.56 14.6806C151.071 14.6176 150.576 14.7329 150.167 15.0051C149.758 15.2772 149.463 15.6875 149.337 16.1595H147.293C147.293 14.2665 149.143 12.9059 151.619 12.9059C154.096 12.9059 155.826 14.2813 155.826 16.3518V23.6131H153.678V21.8828C153.342 22.4694 152.853 22.9558 152.263 23.2914C151.672 23.6269 151.002 23.7993 150.321 23.7906C149.877 23.8318 149.429 23.7805 149.006 23.6402C148.582 23.4999 148.193 23.2736 147.864 22.9757C147.534 22.6778 147.27 22.315 147.089 21.9103C146.909 21.5057 146.816 21.0682 146.816 20.6258V20.6258ZM153.663 19.6793V18.8659L151.052 19.0286C149.74 19.1025 149.009 19.6645 149.009 20.5075C149.009 21.3504 149.769 21.9864 150.948 21.9864C151.28 22.0127 151.614 21.9738 151.931 21.8721C152.248 21.7704 152.542 21.6078 152.795 21.3935C153.049 21.1793 153.257 20.9176 153.409 20.6235C153.56 20.3293 153.652 20.0085 153.678 19.6793H153.663Z" fill="#14142B"/>
<path d="M161.898 12.9781C164.255 12.9781 165.941 14.2648 165.985 16.1282H163.942C163.852 15.1965 163.062 14.6493 161.838 14.6493C160.615 14.6493 159.884 15.1817 159.884 15.9951C159.884 16.8085 160.406 17.0451 161.495 17.3261L163.285 17.7254C165.419 18.243 166.269 19.0268 166.269 20.5649C166.269 22.4579 164.464 23.7593 161.793 23.7593C159.123 23.7593 157.616 22.4874 157.452 20.5649H159.645C159.809 21.5853 160.615 22.1177 161.943 22.1177C163.27 22.1177 164.061 21.5853 164.061 20.7571C164.061 19.929 163.658 19.7515 162.569 19.4705L160.675 19.012C158.765 18.5536 157.795 17.5331 157.795 16.1282C157.751 14.25 159.436 12.9781 161.898 12.9781Z" fill="#14142B"/>
<path d="M170.969 10.5978V13.0824H172.983V14.7979H170.969V20.5952C170.969 21.4973 171.371 21.9114 172.252 21.9114H172.968V23.6121C172.569 23.6813 172.164 23.711 171.759 23.7009C169.611 23.7009 168.776 22.9023 168.776 20.8614V14.8127H167.284V13.0972H168.776V10.5978H170.969Z" fill="#14142B"/>
<path d="M178.83 12.9781C181.188 12.9781 182.873 14.2648 182.918 16.1282H180.874C180.785 15.1965 179.994 14.6493 178.771 14.6493C177.547 14.6493 176.816 15.1817 176.816 15.9951C176.816 16.8085 177.339 17.0451 178.428 17.3261L180.218 17.7254C182.351 18.243 183.201 19.0268 183.201 20.5649C183.201 22.4579 181.396 23.7593 178.801 23.7593C176.205 23.7593 174.564 22.4283 174.415 20.5501H176.563C176.727 21.5705 177.533 22.1029 178.86 22.1029C180.188 22.1029 180.979 21.5705 180.979 20.7423C180.979 19.9142 180.576 19.7367 179.487 19.4557L177.547 18.9973C175.638 18.5388 174.668 17.5184 174.668 16.1134C174.683 14.25 176.369 12.9781 178.83 12.9781Z" fill="#14142B"/>
<defs>
<linearGradient id="paint0_linear" x1="17.9531" y1="0.332187" x2="17.9531" y2="35.8848" gradientUnits="userSpaceOnUse">
<stop stop-color="#F452FF"/>
<stop offset="1" stop-color="#832BC1"/>
</linearGradient>
</defs>
</svg>
